# Blender 3.4.1
# www.blender.org
mtllib beam2.mtl
o I_BEAM2
v 88.900002 19900.000000 0.000000
v 0.000000 19900.000000 0.000000
v 88.900002 100.000381 0.000000
v 0.000000 100.000381 0.000000
v 0.000000 0.000000 0.000000
v 88.900002 0.000000 0.000000
v 0.000000 19900.000000 -150.000000
v 88.900002 19900.000000 -150.000000
v 0.000000 100.000381 -150.000000
v 88.900002 100.000381 -150.000000
v 88.900002 0.000000 -150.000000
v 0.000000 0.000000 -150.000000
v 88.900002 20000.000000 -150.000000
v 88.900002 20000.000000 -147.460007
v 88.900002 0.000000 -147.460007
v 0.000000 20000.000000 -150.000000
v 0.000000 20000.000000 -147.460007
v 0.000000 0.000000 -147.460007
v 0.034008 0.000000 -147.025391
v 0.034008 20000.000000 -147.025391
v 0.135213 0.000000 -146.601349
v 0.135213 20000.000000 -146.601349
v 0.301141 0.000000 -146.198227
v 0.301141 20000.000000 -146.198227
v 0.527762 0.000000 -145.825806
v 0.527762 20000.000000 -145.825806
v 0.809550 0.000000 -145.493179
v 0.809550 20000.000000 -145.493179
v 1.139652 0.000000 -145.208435
v 1.139652 20000.000000 -145.208435
v 1.510031 0.000000 -144.978500
v 1.510031 20000.000000 -144.978500
v 1.911666 0.000000 -144.808975
v 1.911666 20000.000000 -144.808975
v 2.334781 0.000000 -144.703995
v 2.334781 20000.000000 -144.703995
v 28.294668 20000.000000 -140.378433
v 28.294668 0.000000 -140.378433
v 29.410156 20000.000000 -140.101669
v 29.410156 0.000000 -140.101669
v 30.469011 20000.000000 -139.654755
v 30.469011 0.000000 -139.654755
v 31.445459 20000.000000 -139.048569
v 31.445459 0.000000 -139.048569
v 32.315727 20000.000000 -138.297867
v 32.315727 0.000000 -138.297867
v 33.058632 20000.000000 -137.420944
v 33.058632 0.000000 -137.420944
v 33.656082 20000.000000 -136.439133
v 33.656082 0.000000 -136.439133
v 34.093533 20000.000000 -135.376328
v 34.093533 0.000000 -135.376328
v 34.360336 20000.000000 -134.258408
v 34.360336 0.000000 -134.258408
v 34.450001 20000.000000 -133.112610
v 34.450001 0.000000 -133.112610
v 34.450001 20000.000000 -16.887400
v 34.450001 0.000000 -16.887400
v 34.360336 20000.000000 -15.741594
v 34.360336 0.000000 -15.741594
v 34.093533 20000.000000 -14.623683
v 34.093533 0.000000 -14.623683
v 33.656082 20000.000000 -13.560880
v 33.656082 0.000000 -13.560880
v 33.058632 20000.000000 -12.579064
v 33.058632 0.000000 -12.579064
v 32.315727 20000.000000 -11.702135
v 32.315727 0.000000 -11.702135
v 31.445459 20000.000000 -10.951437
v 31.445459 0.000000 -10.951437
v 30.469011 20000.000000 -10.345258
v 30.469011 0.000000 -10.345258
v 29.410156 20000.000000 -9.898342
v 29.410156 0.000000 -9.898342
v 28.294668 20000.000000 -9.621575
v 28.294668 0.000000 -9.621575
v 2.334781 20000.000000 -5.296007
v 2.334781 0.000000 -5.296007
v 1.911666 0.000000 -5.191028
v 1.911666 20000.000000 -5.191028
v 1.510031 0.000000 -5.021505
v 1.510031 20000.000000 -5.021505
v 1.139652 0.000000 -4.791573
v 1.139652 20000.000000 -4.791573
v 0.809550 0.000000 -4.506826
v 0.809550 20000.000000 -4.506826
v 0.527762 0.000000 -4.174195
v 0.527762 20000.000000 -4.174195
v 0.301141 0.000000 -3.801785
v 0.301141 20000.000000 -3.801785
v 0.135213 0.000000 -3.398657
v 0.135213 20000.000000 -3.398657
v 0.034008 0.000000 -2.974622
v 0.034008 20000.000000 -2.974622
v 0.000000 0.000000 -2.540000
v 0.000000 20000.000000 -2.540000
v 0.000000 20000.000000 0.000000
v 88.900002 20000.000000 0.000000
v 88.900002 20000.000000 -2.540000
v 88.900002 0.000000 -2.540000
v 88.865990 0.000000 -2.974622
v 88.865990 20000.000000 -2.974622
v 88.764786 0.000000 -3.398657
v 88.764786 20000.000000 -3.398657
v 88.598862 0.000000 -3.801785
v 88.598862 20000.000000 -3.801785
v 88.372238 0.000000 -4.174195
v 88.372238 20000.000000 -4.174195
v 88.090446 0.000000 -4.506826
v 88.090446 20000.000000 -4.506826
v 87.760345 0.000000 -4.791573
v 87.760345 20000.000000 -4.791573
v 87.389969 0.000000 -5.021505
v 87.389969 20000.000000 -5.021505
v 86.988335 0.000000 -5.191028
v 86.988335 20000.000000 -5.191028
v 86.565216 0.000000 -5.296007
v 86.565216 20000.000000 -5.296007
v 60.605331 20000.000000 -9.621575
v 60.605331 0.000000 -9.621575
v 59.489845 20000.000000 -9.898342
v 59.489845 0.000000 -9.898342
v 58.430988 20000.000000 -10.345258
v 58.430988 0.000000 -10.345258
v 57.454540 20000.000000 -10.951437
v 57.454540 0.000000 -10.951437
v 56.584270 20000.000000 -11.702135
v 56.584270 0.000000 -11.702135
v 55.841370 20000.000000 -12.579064
v 55.841370 0.000000 -12.579064
v 55.243919 20000.000000 -13.560880
v 55.243919 0.000000 -13.560880
v 54.806469 20000.000000 -14.623683
v 54.806469 0.000000 -14.623683
v 54.539661 20000.000000 -15.741594
v 54.539661 0.000000 -15.741594
v 54.450001 20000.000000 -16.887400
v 54.450001 0.000000 -16.887400
v 54.450001 20000.000000 -133.112610
v 54.450001 0.000000 -133.112610
v 54.539661 20000.000000 -134.258408
v 54.539661 0.000000 -134.258408
v 54.806469 20000.000000 -135.376328
v 54.806469 0.000000 -135.376328
v 55.243919 20000.000000 -136.439133
v 55.243919 0.000000 -136.439133
v 55.841370 20000.000000 -137.420944
v 55.841370 0.000000 -137.420944
v 56.584270 20000.000000 -138.297867
v 56.584270 0.000000 -138.297867
v 57.454540 20000.000000 -139.048569
v 57.454540 0.000000 -139.048569
v 58.430988 20000.000000 -139.654755
v 58.430988 0.000000 -139.654755
v 59.489845 20000.000000 -140.101669
v 59.489845 0.000000 -140.101669
v 60.605331 20000.000000 -140.378433
v 60.605331 0.000000 -140.378433
v 86.565216 20000.000000 -144.703995
v 86.565216 0.000000 -144.703995
v 86.988335 0.000000 -144.808975
v 86.988335 20000.000000 -144.808975
v 87.389969 0.000000 -144.978500
v 87.389969 20000.000000 -144.978500
v 87.760345 0.000000 -145.208435
v 87.760345 20000.000000 -145.208435
v 88.090446 0.000000 -145.493179
v 88.090446 20000.000000 -145.493179
v 88.372238 0.000000 -145.825806
v 88.372238 20000.000000 -145.825806
v 88.598862 0.000000 -146.198227
v 88.598862 20000.000000 -146.198227
v 88.764786 0.000000 -146.601349
v 88.764786 20000.000000 -146.601349
v 88.865990 0.000000 -147.025391
v 88.865990 20000.000000 -147.025391
vn -0.0000 -0.0000 1.0000
vn -0.0000 -0.0000 -1.0000
vn 1.0000 -0.0000 -0.0000
vn -1.0000 -0.0000 -0.0000
vn -0.9970 -0.0000 0.0780
vn -0.9727 -0.0000 0.2321
vn -0.9247 -0.0000 0.3806
vn -0.8543 -0.0000 0.5198
vn -0.7630 -0.0000 0.6464
vn -0.6532 -0.0000 0.7572
vn -0.5274 -0.0000 0.8496
vn -0.3889 -0.0000 0.9213
vn -0.2408 -0.0000 0.9706
vn -0.1644 -0.0000 0.9864
vn -0.9970 -0.0000 -0.0780
vn -0.9727 -0.0000 -0.2321
vn -0.9727 -0.0000 -0.2322
vn -0.9247 -0.0000 -0.3806
vn -0.8543 -0.0000 -0.5198
vn -0.7630 -0.0000 -0.6464
vn -0.6532 -0.0000 -0.7572
vn -0.5274 -0.0000 -0.8496
vn -0.3889 -0.0000 -0.9213
vn -0.2408 -0.0000 -0.9706
vn -0.1644 -0.0000 -0.9864
vn 0.9970 -0.0000 -0.0780
vn 0.9727 -0.0000 -0.2322
vn 0.9727 -0.0000 -0.2321
vn 0.9247 -0.0000 -0.3806
vn 0.8543 -0.0000 -0.5198
vn 0.7630 -0.0000 -0.6464
vn 0.6532 -0.0000 -0.7572
vn 0.5274 -0.0000 -0.8496
vn 0.3889 -0.0000 -0.9213
vn 0.2408 -0.0000 -0.9706
vn 0.1644 -0.0000 -0.9864
vn 0.9970 -0.0000 0.0780
vn 0.9727 -0.0000 0.2321
vn 0.9247 -0.0000 0.3806
vn 0.8543 -0.0000 0.5198
vn 0.7630 -0.0000 0.6464
vn 0.6532 -0.0000 0.7572
vn 0.5274 -0.0000 0.8496
vn 0.3889 -0.0000 0.9213
vn 0.2408 -0.0000 0.9706
vn 0.1644 -0.0000 0.9864
vn 0.9727 -0.0000 0.2322
vn -0.0000 1.0000 -0.0000
vn 0.0005 1.0000 -0.0000
vn -0.0003 1.0000 -0.0000
vn 0.0003 1.0000 -0.0000
vn 0.0001 1.0000 -0.0000
vn 0.0013 1.0000 -0.0000
vn 0.0042 1.0000 -0.0000
vn 0.0051 1.0000 -0.0000
vn -0.0001 1.0000 -0.0000
vn -0.0013 1.0000 -0.0000
vn 0.0026 1.0000 -0.0000
vn 0.0056 1.0000 -0.0000
vn -0.0069 1.0000 -0.0000
vn -0.0006 1.0000 -0.0000
vn -0.0064 1.0000 -0.0000
vn 0.0079 1.0000 -0.0000
vn -0.0112 0.9999 -0.0000
vn 0.0111 0.9999 -0.0000
vn -0.0002 1.0000 -0.0000
vn 0.0002 1.0000 -0.0000
vn -0.0111 0.9999 -0.0000
vn -0.0047 1.0000 -0.0000
vn -0.0068 1.0000 -0.0000
vn -0.0225 0.9997 -0.0000
vn 0.0222 0.9998 -0.0000
vn -0.0659 0.9978 -0.0000
vn 0.0069 1.0000 -0.0000
vn -0.0000 -1.0000 -0.0000
s 0
f 1//1 2//1 3//1
f 3//1 2//1 4//1
f 4//1 5//1 3//1
f 3//1 5//1 6//1
f 7//2 8//2 9//2
f 9//2 8//2 10//2
f 10//2 11//2 9//2
f 9//2 11//2 12//2
f 8//3 13//3 14//3
f 8//3 14//3 10//3
f 10//3 14//3 15//3
f 10//3 15//3 11//3
f 7//2 16//2 8//2
f 8//2 16//2 13//2
f 16//4 7//4 17//4
f 17//4 7//4 9//4
f 17//4 9//4 18//4
f 18//4 9//4 12//4
f 17//5 18//5 19//5
f 17//5 19//5 20//5
f 20//6 19//6 21//6
f 20//6 21//6 22//6
f 22//7 21//7 23//7
f 22//7 23//7 24//7
f 24//8 23//8 25//8
f 24//8 25//8 26//8
f 26//9 25//9 27//9
f 26//9 27//9 28//9
f 28//10 27//10 29//10
f 28//10 29//10 30//10
f 30//11 29//11 31//11
f 30//11 31//11 32//11
f 32//12 31//12 33//12
f 32//12 33//12 34//12
f 34//13 33//13 35//13
f 34//13 35//13 36//13
f 37//14 36//14 38//14
f 38//14 36//14 35//14
f 37//13 38//13 39//13
f 39//13 38//13 40//13
f 39//12 40//12 41//12
f 41//12 40//12 42//12
f 41//11 42//11 43//11
f 43//11 42//11 44//11
f 43//10 44//10 45//10
f 45//10 44//10 46//10
f 45//9 46//9 47//9
f 47//9 46//9 48//9
f 47//8 48//8 49//8
f 49//8 48//8 50//8
f 49//7 50//7 51//7
f 51//7 50//7 52//7
f 51//6 52//6 53//6
f 53//6 52//6 54//6
f 53//5 54//5 55//5
f 55//5 54//5 56//5
f 57//4 55//4 58//4
f 58//4 55//4 56//4
f 57//15 58//15 59//15
f 59//15 58//15 60//15
f 59//16 60//16 61//16
f 61//17 60//17 62//17
f 61//18 62//18 63//18
f 63//18 62//18 64//18
f 63//19 64//19 65//19
f 65//19 64//19 66//19
f 65//20 66//20 67//20
f 67//20 66//20 68//20
f 67//21 68//21 69//21
f 69//21 68//21 70//21
f 69//22 70//22 71//22
f 71//22 70//22 72//22
f 71//23 72//23 73//23
f 73//23 72//23 74//23
f 73//24 74//24 75//24
f 75//24 74//24 76//24
f 77//25 75//25 78//25
f 78//25 75//25 76//25
f 77//24 78//24 79//24
f 77//24 79//24 80//24
f 80//23 79//23 81//23
f 80//23 81//23 82//23
f 82//22 81//22 83//22
f 82//22 83//22 84//22
f 84//21 83//21 85//21
f 84//21 85//21 86//21
f 86//20 85//20 87//20
f 86//20 87//20 88//20
f 88//19 87//19 89//19
f 88//19 89//19 90//19
f 90//18 89//18 91//18
f 90//18 91//18 92//18
f 92//17 91//17 93//17
f 92//17 93//17 94//17
f 94//15 93//15 95//15
f 94//15 95//15 96//15
f 2//4 97//4 96//4
f 2//4 96//4 4//4
f 4//4 96//4 95//4
f 4//4 95//4 5//4
f 1//1 98//1 2//1
f 2//1 98//1 97//1
f 98//3 1//3 99//3
f 99//3 1//3 3//3
f 99//3 3//3 100//3
f 100//3 3//3 6//3
f 99//26 100//26 101//26
f 99//26 101//26 102//26
f 102//27 101//27 103//27
f 102//28 103//28 104//28
f 104//29 103//29 105//29
f 104//29 105//29 106//29
f 106//30 105//30 107//30
f 106//30 107//30 108//30
f 108//31 107//31 109//31
f 108//31 109//31 110//31
f 110//32 109//32 111//32
f 110//32 111//32 112//32
f 112//33 111//33 113//33
f 112//33 113//33 114//33
f 114//34 113//34 115//34
f 114//34 115//34 116//34
f 116//35 115//35 117//35
f 116//35 117//35 118//35
f 119//36 118//36 120//36
f 120//36 118//36 117//36
f 119//35 120//35 121//35
f 121//35 120//35 122//35
f 121//34 122//34 123//34
f 123//34 122//34 124//34
f 123//33 124//33 125//33
f 125//33 124//33 126//33
f 125//32 126//32 127//32
f 127//32 126//32 128//32
f 127//31 128//31 129//31
f 129//31 128//31 130//31
f 129//30 130//30 131//30
f 131//30 130//30 132//30
f 131//29 132//29 133//29
f 133//29 132//29 134//29
f 133//27 134//27 135//27
f 135//28 134//28 136//28
f 135//26 136//26 137//26
f 137//26 136//26 138//26
f 139//3 137//3 140//3
f 140//3 137//3 138//3
f 139//37 140//37 141//37
f 141//37 140//37 142//37
f 141//38 142//38 143//38
f 143//38 142//38 144//38
f 143//39 144//39 145//39
f 145//39 144//39 146//39
f 145//40 146//40 147//40
f 147//40 146//40 148//40
f 147//41 148//41 149//41
f 149//41 148//41 150//41
f 149//42 150//42 151//42
f 151//42 150//42 152//42
f 151//43 152//43 153//43
f 153//43 152//43 154//43
f 153//44 154//44 155//44
f 155//44 154//44 156//44
f 155//45 156//45 157//45
f 157//45 156//45 158//45
f 159//46 157//46 160//46
f 160//46 157//46 158//46
f 159//45 160//45 161//45
f 159//45 161//45 162//45
f 162//44 161//44 163//44
f 162//44 163//44 164//44
f 164//43 163//43 165//43
f 164//43 165//43 166//43
f 166//42 165//42 167//42
f 166//42 167//42 168//42
f 168//41 167//41 169//41
f 168//41 169//41 170//41
f 170//40 169//40 171//40
f 170//40 171//40 172//40
f 172//39 171//39 173//39
f 172//39 173//39 174//39
f 174//38 173//38 175//38
f 174//47 175//47 176//47
f 176//37 175//37 15//37
f 176//37 15//37 14//37
f 37//48 39//48 13//48
f 65//49 67//49 98//49
f 98//50 67//50 69//50
f 98//51 69//51 71//51
f 37//48 13//48 36//48
f 119//48 121//48 65//48
f 65//48 121//48 123//48
f 65//52 123//52 125//52
f 147//48 45//48 47//48
f 13//48 16//48 36//48
f 36//53 16//53 17//53
f 36//54 17//54 20//54
f 39//48 41//48 147//48
f 147//51 41//51 43//51
f 147//52 43//52 45//52
f 147//50 149//50 39//50
f 39//52 149//52 151//52
f 39//48 151//48 153//48
f 82//48 84//48 96//48
f 20//48 22//48 36//48
f 36//55 22//55 24//55
f 36//48 24//48 34//48
f 24//48 26//48 28//48
f 153//48 155//48 39//48
f 39//48 155//48 157//48
f 39//48 157//48 13//48
f 13//56 157//56 159//56
f 13//57 159//57 14//57
f 14//48 159//48 162//48
f 14//58 162//58 164//58
f 28//48 30//48 24//48
f 24//59 30//59 32//59
f 24//60 32//60 34//60
f 71//48 73//48 98//48
f 98//61 73//61 75//61
f 98//48 75//48 97//48
f 97//52 75//52 77//52
f 97//53 77//53 96//53
f 96//62 77//62 80//62
f 96//48 80//48 82//48
f 65//48 98//48 119//48
f 119//50 98//50 99//50
f 119//48 99//48 118//48
f 118//48 99//48 102//48
f 118//63 102//63 104//63
f 110//64 112//64 118//64
f 118//65 112//65 114//65
f 118//48 114//48 116//48
f 47//48 49//48 147//48
f 147//66 49//66 51//66
f 147//67 51//67 145//67
f 145//48 51//48 143//48
f 166//48 168//48 164//48
f 164//68 168//68 170//68
f 164//59 170//59 172//59
f 172//48 174//48 164//48
f 164//69 174//69 176//69
f 164//70 176//70 14//70
f 84//48 86//48 96//48
f 96//60 86//60 88//60
f 96//71 88//71 94//71
f 94//72 88//72 90//72
f 94//73 90//73 92//73
f 104//48 106//48 118//48
f 118//69 106//69 108//69
f 118//74 108//74 110//74
f 61//48 129//48 59//48
f 59//66 129//66 131//66
f 125//48 127//48 65//48
f 65//48 127//48 129//48
f 65//48 129//48 63//48
f 63//48 129//48 61//48
f 143//48 51//48 141//48
f 141//48 51//48 53//48
f 141//48 53//48 55//48
f 131//67 133//67 59//67
f 59//48 133//48 135//48
f 59//48 135//48 57//48
f 57//48 135//48 137//48
f 57//48 137//48 55//48
f 55//48 137//48 139//48
f 55//48 139//48 141//48
f 6//75 70//75 68//75
f 76//75 74//75 6//75
f 6//75 74//75 72//75
f 6//75 72//75 70//75
f 161//75 160//75 15//75
f 19//75 18//75 35//75
f 35//75 18//75 12//75
f 35//75 12//75 38//75
f 38//75 12//75 11//75
f 38//75 11//75 40//75
f 76//75 6//75 78//75
f 78//75 6//75 5//75
f 78//75 5//75 95//75
f 154//75 152//75 40//75
f 132//75 130//75 66//75
f 66//75 130//75 128//75
f 66//75 128//75 126//75
f 126//75 124//75 66//75
f 66//75 124//75 122//75
f 66//75 122//75 120//75
f 15//75 160//75 11//75
f 11//75 160//75 158//75
f 11//75 158//75 40//75
f 40//75 158//75 156//75
f 40//75 156//75 154//75
f 148//75 52//75 50//75
f 50//75 48//75 148//75
f 148//75 48//75 46//75
f 148//75 46//75 44//75
f 33//75 31//75 23//75
f 173//75 171//75 163//75
f 152//75 150//75 40//75
f 40//75 150//75 148//75
f 40//75 148//75 42//75
f 42//75 148//75 44//75
f 33//75 23//75 35//75
f 35//75 23//75 21//75
f 35//75 21//75 19//75
f 83//75 81//75 95//75
f 95//75 81//75 79//75
f 95//75 79//75 78//75
f 31//75 29//75 23//75
f 23//75 29//75 27//75
f 23//75 27//75 25//75
f 91//75 89//75 93//75
f 93//75 89//75 87//75
f 93//75 87//75 95//75
f 95//75 87//75 85//75
f 95//75 85//75 83//75
f 161//75 15//75 163//75
f 163//75 15//75 175//75
f 163//75 175//75 173//75
f 171//75 169//75 163//75
f 163//75 169//75 167//75
f 163//75 167//75 165//75
f 64//75 136//75 66//75
f 66//75 136//75 134//75
f 66//75 134//75 132//75
f 56//75 54//75 140//75
f 115//75 113//75 117//75
f 117//75 113//75 111//75
f 117//75 111//75 109//75
f 109//75 107//75 117//75
f 117//75 107//75 105//75
f 117//75 105//75 103//75
f 68//75 66//75 6//75
f 6//75 66//75 120//75
f 6//75 120//75 100//75
f 100//75 120//75 117//75
f 100//75 117//75 101//75
f 101//75 117//75 103//75
f 148//75 146//75 52//75
f 52//75 146//75 144//75
f 52//75 144//75 54//75
f 54//75 144//75 142//75
f 54//75 142//75 140//75
f 64//75 62//75 136//75
f 136//75 62//75 60//75
f 136//75 60//75 58//75
f 56//75 140//75 58//75
f 58//75 140//75 138//75
f 58//75 138//75 136//75
